<svg xmlns="http://www.w3.org/2000/svg" viewBox="0 0 1000 1000"><path d="M 0.00,745.76 L 34.24,703.83 L 98.87,653.96 L 124.56,568.42 L 74.92,531.55 L 70.15,434.93 L 120.58,366.69 L 197.62,367.94 L 224.65,339.10 L 196.36,314.25 L 316.95,211.89 L 394.64,131.24 L 445.91,79.47 L 520.49,79.72 L 541.04,39.21 L 687.42,50.86 L 698.81,2.99 L 746.99,0.00 L 850.51,35.61 L 971.74,85.14 L 973.79,197.18 L 1000.00,225.50 L 866.40,246.10 L 791.10,296.86 L 803.22,341.42 L 679.68,399.92 L 529.70,462.50 L 473.14,564.96 L 528.42,616.22 L 602.70,656.58 L 531.36,738.66 L 450.59,755.68 L 420.96,877.81 L 376.86,945.97 L 282.64,938.95 L 238.69,996.65 L 148.77,1000.00 L 124.09,931.22 L 59.07,848.66 L 0.00,745.76 Z" fill="#000" fill-rule="evenodd"/></svg>